# xmcd CD database file
#
# Track frame offsets:
#	150
#	60065
#	85038
#	139714
#	198779
#	224848
#	251199
#	286290
#	313773
#	340745
#
# Disc length: 4861 seconds
#
# Revision: 0
# Processed by: cddbd v1.5.2PL0 Copyright (c) Steve Scherf et al.
# Submitted via: CDex 1.51
#
DISCID=9112fb0a
DTITLE=Eric Dolphy - 12 Classic Albums Disc Three
DYEAR=1962
DGENRE=Jazz
TTITLE0=Status Seeking
TTITLE1=God Bless The Child
TTITLE2=G.W.
TTITLE3=Don't Blame Me
TTITLE4=Rally
TTITLE5=Bass Duet
TTITLE6=Softly, As In A Morning Sunrise
TTITLE7=Where?
TTITLE8=Yes Indeed
TTITLE9=Saucer Eyes
EXTD=YEAR: 1962
EXTT0=
EXTT1=
EXTT2=
EXTT3=
EXTT4=
EXTT5=
EXTT6=
EXTT7=
EXTT8=
EXTT9=
PLAYORDER=
